# xmcd CD database file
#
# Track frame offsets:
#	150
#	31645
#	59224
#	78812
#	114451
#	155021
#	194615
#
# Disc length: 2776 seconds
#
# Revision: 0
# Processed by: cddbd v1.5.2PL0 Copyright (c) Steve Scherf et al.
# Submitted via: CDex 1.70beta2
#
DISCID=570ad607
DTITLE=Georg Schroeter, Marc Breitfelder - LIVE IN SWEDEN 2/2
DYEAR=2007
DGENRE=Blues
TTITLE0=Route 66
TTITLE1=Long as I can see the light
TTITLE2=Little piece of paper
TTITLE3=Talk to me
TTITLE4=Can't be satisfied
TTITLE5=Runnin' of faith
TTITLE6=Amazing
EXTD=YEAR: 2007
EXTT0=
EXTT1=
EXTT2=
EXTT3=
EXTT4=
EXTT5=
EXTT6=
PLAYORDER=
